<?xml version='1.0' encoding='utf-8'?>
<svg xmlns="http://www.w3.org/2000/svg" width="1160" height="400"><rect width="100%" height="100%" fill="white" /><text font-family="sans-serif" font-size="20" x="80" y="25">Job shop schedule | Makespan: 661</text><text font-family="sans-serif" font-size="14" x="15" y="76">M0</text><line x1="80" x2="1080" y1="90" y2="90" stroke="#dddddd" /><text font-family="sans-serif" font-size="14" x="15" y="136">M1</text><line x1="80" x2="1080" y1="150" y2="150" stroke="#dddddd" /><text font-family="sans-serif" font-size="14" x="15" y="196">M2</text><line x1="80" x2="1080" y1="210" y2="210" stroke="#dddddd" /><text font-family="sans-serif" font-size="14" x="15" y="256">M3</text><line x1="80" x2="1080" y1="270" y2="270" stroke="#dddddd" /><text font-family="sans-serif" font-size="14" x="15" y="316">M4</text><line x1="80" x2="1080" y1="330" y2="330" stroke="#dddddd" /><rect x="80.0" y="110" width="101.36157337367624" height="38" fill="#e699c2" stroke="white"><title>J5 O0: 0-67</title></rect><text font-family="sans-serif" font-size="11" x="83.0" y="134">J5</text><rect x="80.0" y="290" width="37.821482602118" height="38" fill="#99e6af" stroke="white"><title>J1 O0: 0-25</title></rect><text font-family="sans-serif" font-size="11" x="83.0" y="314">J1</text><rect x="117.82148260211801" y="290" width="40.84720121028744" height="38" fill="#99d9e6" stroke="white"><title>J4 O0: 25-52</title></rect><text font-family="sans-serif" font-size="11" x="120.82148260211801" y="314">J4</text><rect x="158.66868381240545" y="50" width="63.54009077155824" height="38" fill="#99d9e6" stroke="white"><title>J4 O1: 52-94</title></rect><text font-family="sans-serif" font-size="11" x="161.66868381240545" y="74">J4</text><rect x="181.36157337367624" y="110" width="108.92586989409985" height="38" fill="#c699e6" stroke="white"><title>J2 O0: 67-139</title></rect><text font-family="sans-serif" font-size="11" x="184.36157337367624" y="134">J2</text><rect x="80.0" y="50" width="30.2571860816944" height="38" fill="#e69999" stroke="white"><title>J0 O0: 0-20</title></rect><rect x="158.66868381240545" y="290" width="108.92586989409985" height="38" fill="#99e6c9" stroke="white"><title>J9 O0: 52-124</title></rect><text font-family="sans-serif" font-size="11" x="161.66868381240545" y="314">J9</text><rect x="117.82148260211801" y="170" width="48.41149773071104" height="38" fill="#99e6af" stroke="white"><title>J1 O1: 25-57</title></rect><text font-family="sans-serif" font-size="11" x="120.82148260211801" y="194">J1</text><rect x="110.2571860816944" y="230" width="131.61875945537065" height="38" fill="#e69999" stroke="white"><title>J0 O1: 20-107</title></rect><text font-family="sans-serif" font-size="11" x="113.2571860816944" y="254">J0</text><rect x="222.20877458396367" y="50" width="36.30862329803328" height="38" fill="#99e6af" stroke="white"><title>J1 O2: 94-118</title></rect><text font-family="sans-serif" font-size="11" x="225.20877458396367" y="74">J1</text><rect x="267.5945537065053" y="290" width="42.36006051437216" height="38" fill="#ace699" stroke="white"><title>J6 O0: 124-152</title></rect><text font-family="sans-serif" font-size="11" x="270.5945537065053" y="314">J6</text><rect x="309.95461422087743" y="290" width="21.18003025718608" height="38" fill="#e6b299" stroke="white"><title>J8 O0: 152-166</title></rect><rect x="290.2874432677761" y="110" width="27.23146747352496" height="38" fill="#99e6af" stroke="white"><title>J1 O3: 139-157</title></rect><rect x="267.5945537065053" y="170" width="27.23146747352496" height="38" fill="#99e6c9" stroke="white"><title>J9 O1: 124-142</title></rect><rect x="317.51891074130106" y="110" width="55.975794251134644" height="38" fill="#99e6c9" stroke="white"><title>J9 O2: 157-194</title></rect><text font-family="sans-serif" font-size="11" x="320.51891074130106" y="134">J9</text><rect x="294.82602118003024" y="170" width="34.79576399394856" height="38" fill="#c699e6" stroke="white"><title>J2 O1: 142-165</title></rect><text font-family="sans-serif" font-size="11" x="297.82602118003024" y="194">J2</text><rect x="317.51891074130106" y="230" width="122.54160363086233" height="38" fill="#99e6af" stroke="white"><title>J1 O4: 157-238</title></rect><text font-family="sans-serif" font-size="11" x="320.51891074130106" y="254">J1</text><rect x="331.13464447806354" y="290" width="42.36006051437216" height="38" fill="#c699e6" stroke="white"><title>J2 O2: 166-194</title></rect><text font-family="sans-serif" font-size="11" x="334.13464447806354" y="314">J2</text><rect x="373.4947049924357" y="110" width="95.31013615733737" height="38" fill="#9c99e6" stroke="white"><title>J7 O0: 194-257</title></rect><text font-family="sans-serif" font-size="11" x="376.4947049924357" y="134">J7</text><rect x="258.517397881997" y="50" width="148.26021180030256" height="38" fill="#e699c2" stroke="white"><title>J5 O1: 118-216</title></rect><text font-family="sans-serif" font-size="11" x="261.517397881997" y="74">J5</text><rect x="406.7776096822995" y="50" width="87.74583963691376" height="38" fill="#c699e6" stroke="white"><title>J2 O3: 216-274</title></rect><text font-family="sans-serif" font-size="11" x="409.7776096822995" y="74">J2</text><rect x="440.06051437216337" y="230" width="119.51588502269288" height="38" fill="#99e6c9" stroke="white"><title>J9 O3: 238-317</title></rect><text font-family="sans-serif" font-size="11" x="443.06051437216337" y="254">J9</text><rect x="241.87594553706504" y="230" width="72.61724659606656" height="38" fill="#99d9e6" stroke="white"><title>J4 O2: 107-155</title></rect><text font-family="sans-serif" font-size="11" x="244.87594553706504" y="254">J4</text><rect x="494.5234493192133" y="50" width="142.20877458396367" height="38" fill="#9c99e6" stroke="white"><title>J7 O1: 274-368</title></rect><text font-family="sans-serif" font-size="11" x="497.5234493192133" y="74">J7</text><rect x="636.732223903177" y="170" width="148.26021180030256" height="38" fill="#9c99e6" stroke="white"><title>J7 O2: 368-466</title></rect><text font-family="sans-serif" font-size="11" x="639.732223903177" y="194">J7</text><rect x="406.7776096822995" y="290" width="72.61724659606656" height="38" fill="#e699c2" stroke="white"><title>J5 O2: 216-264</title></rect><text font-family="sans-serif" font-size="11" x="409.7776096822995" y="314">J5</text><rect x="329.62178517397876" y="170" width="130.1059001512859" height="38" fill="#e6dc99" stroke="white"><title>J3 O0: 165-251</title></rect><text font-family="sans-serif" font-size="11" x="332.62178517397876" y="194">J3</text><rect x="468.80484114977304" y="110" width="46.89863842662632" height="38" fill="#e69999" stroke="white"><title>J0 O2: 257-288</title></rect><text font-family="sans-serif" font-size="11" x="471.80484114977304" y="134">J0</text><rect x="515.7034795763993" y="110" width="114.97730711043872" height="38" fill="#e6dc99" stroke="white"><title>J3 O1: 288-364</title></rect><text font-family="sans-serif" font-size="11" x="518.7034795763993" y="134">J3</text><rect x="630.6807866868381" y="110" width="18.15431164901664" height="38" fill="#ace699" stroke="white"><title>J6 O1: 364-376</title></rect><rect x="636.732223903177" y="50" width="113.464447806354" height="38" fill="#e6b299" stroke="white"><title>J8 O1: 368-443</title></rect><text font-family="sans-serif" font-size="11" x="639.732223903177" y="74">J8</text><rect x="784.9924357034795" y="230" width="75.642965204236" height="38" fill="#9c99e6" stroke="white"><title>J7 O3: 466-516</title></rect><text font-family="sans-serif" font-size="11" x="787.9924357034795" y="254">J7</text><rect x="784.9924357034795" y="170" width="75.642965204236" height="38" fill="#e6b299" stroke="white"><title>J8 O2: 466-516</title></rect><text font-family="sans-serif" font-size="11" x="787.9924357034795" y="194">J8</text><rect x="559.5763993948563" y="230" width="149.77307110438727" height="38" fill="#c699e6" stroke="white"><title>J2 O4: 317-416</title></rect><text font-family="sans-serif" font-size="11" x="562.5763993948563" y="254">J2</text><rect x="515.7034795763993" y="290" width="114.97730711043872" height="38" fill="#e69999" stroke="white"><title>J0 O3: 288-364</title></rect><text font-family="sans-serif" font-size="11" x="518.7034795763993" y="314">J0</text><rect x="630.6807866868381" y="290" width="146.74735249621784" height="38" fill="#e6dc99" stroke="white"><title>J3 O2: 364-461</title></rect><text font-family="sans-serif" font-size="11" x="633.6807866868381" y="314">J3</text><rect x="459.7276853252647" y="170" width="25.71860816944024" height="38" fill="#99d9e6" stroke="white"><title>J4 O3: 251-268</title></rect><rect x="709.3494704992436" y="230" width="40.84720121028744" height="38" fill="#e699c2" stroke="white"><title>J5 O3: 416-443</title></rect><text font-family="sans-serif" font-size="11" x="712.3494704992436" y="254">J5</text><rect x="860.6354009077155" y="170" width="93.79727685325264" height="38" fill="#e699c2" stroke="white"><title>J5 O4: 516-578</title></rect><text font-family="sans-serif" font-size="11" x="863.6354009077155" y="194">J5</text><rect x="777.4281391830559" y="50" width="68.0786686838124" height="38" fill="#e6dc99" stroke="white"><title>J3 O3: 461-506</title></rect><text font-family="sans-serif" font-size="11" x="780.4281391830559" y="74">J3</text><rect x="860.6354009077155" y="110" width="62.02723146747352" height="38" fill="#e6b299" stroke="white"><title>J8 O3: 516-557</title></rect><text font-family="sans-serif" font-size="11" x="863.6354009077155" y="134">J8</text><rect x="648.8350983358547" y="110" width="69.59152798789712" height="38" fill="#99d9e6" stroke="white"><title>J4 O4: 376-422</title></rect><text font-family="sans-serif" font-size="11" x="651.8350983358547" y="134">J4</text><rect x="750.196671709531" y="230" width="28.74432677760968" height="38" fill="#ace699" stroke="white"><title>J6 O2: 443-462</title></rect><rect x="845.5068078668684" y="50" width="121.0287443267776" height="38" fill="#ace699" stroke="white"><title>J6 O3: 506-586</title></rect><text font-family="sans-serif" font-size="11" x="848.5068078668684" y="74">J6</text><rect x="860.6354009077155" y="230" width="136.1573373676248" height="38" fill="#e6dc99" stroke="white"><title>J3 O4: 516-606</title></rect><text font-family="sans-serif" font-size="11" x="863.6354009077155" y="254">J3</text><rect x="860.6354009077155" y="290" width="121.0287443267776" height="38" fill="#9c99e6" stroke="white"><title>J7 O4: 516-596</title></rect><text font-family="sans-serif" font-size="11" x="863.6354009077155" y="314">J7</text><rect x="966.5355521936459" y="170" width="75.642965204236" height="38" fill="#ace699" stroke="white"><title>J6 O4: 586-636</title></rect><text font-family="sans-serif" font-size="11" x="969.5355521936459" y="194">J6</text><rect x="966.5355521936459" y="50" width="92.28441754916793" height="38" fill="#99e6c9" stroke="white"><title>J9 O4: 586-647</title></rect><text font-family="sans-serif" font-size="11" x="969.5355521936459" y="74">J9</text><rect x="996.7927382753403" y="230" width="83.2072617246596" height="38" fill="#e6b299" stroke="white"><title>J8 O4: 606-661</title></rect><text font-family="sans-serif" font-size="11" x="999.7927382753403" y="254">J8</text><rect x="1042.178517397882" y="170" width="25.71860816944024" height="38" fill="#e69999" stroke="white"><title>J0 O4: 636-653</title></rect><text font-family="sans-serif" font-size="14" x="80.0" y="370">0</text><text font-family="sans-serif" font-size="14" x="180.0" y="370">66</text><text font-family="sans-serif" font-size="14" x="280.0" y="370">132</text><text font-family="sans-serif" font-size="14" x="380.0" y="370">198</text><text font-family="sans-serif" font-size="14" x="480.0" y="370">264</text><text font-family="sans-serif" font-size="14" x="580.0" y="370">330</text><text font-family="sans-serif" font-size="14" x="680.0" y="370">397</text><text font-family="sans-serif" font-size="14" x="780.0" y="370">463</text><text font-family="sans-serif" font-size="14" x="880.0" y="370">529</text><text font-family="sans-serif" font-size="14" x="980.0" y="370">595</text><text font-family="sans-serif" font-size="14" x="1080.0" y="370">661</text></svg>