<?xml version='1.0' encoding='utf-8'?>
<svg xmlns="http://www.w3.org/2000/svg" width="1160" height="400"><rect width="100%" height="100%" fill="white" /><text font-family="sans-serif" font-size="20" x="80" y="25">Job shop schedule | Makespan: 663</text><text font-family="sans-serif" font-size="14" x="15" y="76">M0</text><line x1="80" x2="1080" y1="90" y2="90" stroke="#dddddd" /><text font-family="sans-serif" font-size="14" x="15" y="136">M1</text><line x1="80" x2="1080" y1="150" y2="150" stroke="#dddddd" /><text font-family="sans-serif" font-size="14" x="15" y="196">M2</text><line x1="80" x2="1080" y1="210" y2="210" stroke="#dddddd" /><text font-family="sans-serif" font-size="14" x="15" y="256">M3</text><line x1="80" x2="1080" y1="270" y2="270" stroke="#dddddd" /><text font-family="sans-serif" font-size="14" x="15" y="316">M4</text><line x1="80" x2="1080" y1="330" y2="330" stroke="#dddddd" /><rect x="80.0" y="290" width="40.723981900452486" height="38" fill="#99d9e6" stroke="white"><title>J4 O0: 0-27</title></rect><text font-family="sans-serif" font-size="11" x="83.0" y="314">J4</text><rect x="120.72398190045249" y="290" width="37.70739064856712" height="38" fill="#99e6af" stroke="white"><title>J1 O0: 27-52</title></rect><text font-family="sans-serif" font-size="11" x="123.72398190045249" y="314">J1</text><rect x="80.0" y="110" width="95.02262443438914" height="38" fill="#9c99e6" stroke="white"><title>J7 O0: 0-63</title></rect><text font-family="sans-serif" font-size="11" x="83.0" y="134">J7</text><rect x="158.4313725490196" y="170" width="48.26546003016591" height="38" fill="#99e6af" stroke="white"><title>J1 O1: 52-84</title></rect><text font-family="sans-serif" font-size="11" x="161.4313725490196" y="194">J1</text><rect x="175.02262443438914" y="110" width="108.5972850678733" height="38" fill="#c699e6" stroke="white"><title>J2 O0: 63-135</title></rect><text font-family="sans-serif" font-size="11" x="178.02262443438914" y="134">J2</text><rect x="206.69683257918552" y="50" width="36.199095022624434" height="38" fill="#99e6af" stroke="white"><title>J1 O2: 84-108</title></rect><text font-family="sans-serif" font-size="11" x="209.69683257918552" y="74">J1</text><rect x="158.4313725490196" y="290" width="21.116138763197586" height="38" fill="#e6b299" stroke="white"><title>J8 O0: 52-66</title></rect><rect x="283.61990950226243" y="170" width="34.69079939668175" height="38" fill="#c699e6" stroke="white"><title>J2 O1: 135-158</title></rect><text font-family="sans-serif" font-size="11" x="286.61990950226243" y="194">J2</text><rect x="283.61990950226243" y="110" width="27.149321266968325" height="38" fill="#99e6af" stroke="white"><title>J1 O3: 135-153</title></rect><rect x="310.7692307692308" y="110" width="101.05580693815988" height="38" fill="#e699c2" stroke="white"><title>J5 O0: 153-220</title></rect><text font-family="sans-serif" font-size="11" x="313.7692307692308" y="134">J5</text><rect x="318.3107088989442" y="170" width="129.71342383107088" height="38" fill="#e6dc99" stroke="white"><title>J3 O0: 158-244</title></rect><text font-family="sans-serif" font-size="11" x="321.3107088989442" y="194">J3</text><rect x="318.3107088989442" y="290" width="42.23227752639517" height="38" fill="#c699e6" stroke="white"><title>J2 O2: 158-186</title></rect><text font-family="sans-serif" font-size="11" x="321.3107088989442" y="314">J2</text><rect x="179.54751131221718" y="290" width="108.5972850678733" height="38" fill="#99e6c9" stroke="white"><title>J9 O0: 66-138</title></rect><text font-family="sans-serif" font-size="11" x="182.54751131221718" y="314">J9</text><rect x="360.54298642533934" y="50" width="87.48114630467572" height="38" fill="#c699e6" stroke="white"><title>J2 O3: 186-244</title></rect><text font-family="sans-serif" font-size="11" x="363.54298642533934" y="74">J2</text><rect x="360.54298642533934" y="290" width="42.23227752639517" height="38" fill="#ace699" stroke="white"><title>J6 O0: 186-214</title></rect><text font-family="sans-serif" font-size="11" x="363.54298642533934" y="314">J6</text><rect x="120.72398190045249" y="50" width="63.34841628959276" height="38" fill="#99d9e6" stroke="white"><title>J4 O1: 27-69</title></rect><text font-family="sans-serif" font-size="11" x="123.72398190045249" y="74">J4</text><rect x="448.0241327300151" y="50" width="141.77978883861238" height="38" fill="#9c99e6" stroke="white"><title>J7 O1: 244-338</title></rect><text font-family="sans-serif" font-size="11" x="451.0241327300151" y="74">J7</text><rect x="448.0241327300151" y="230" width="149.3212669683258" height="38" fill="#c699e6" stroke="white"><title>J2 O4: 244-343</title></rect><text font-family="sans-serif" font-size="11" x="451.0241327300151" y="254">J2</text><rect x="411.82503770739066" y="110" width="18.099547511312217" height="38" fill="#ace699" stroke="white"><title>J6 O1: 220-232</title></rect><rect x="589.8039215686274" y="50" width="147.8129713423831" height="38" fill="#e699c2" stroke="white"><title>J5 O1: 338-436</title></rect><text font-family="sans-serif" font-size="11" x="592.8039215686274" y="74">J5</text><rect x="80.0" y="50" width="30.165912518853695" height="38" fill="#e69999" stroke="white"><title>J0 O0: 0-20</title></rect><rect x="597.3453996983409" y="230" width="28.657616892911008" height="38" fill="#ace699" stroke="white"><title>J6 O2: 343-362</title></rect><rect x="110.1659125188537" y="230" width="131.22171945701356" height="38" fill="#e69999" stroke="white"><title>J0 O1: 20-107</title></rect><text font-family="sans-serif" font-size="11" x="113.1659125188537" y="254">J0</text><rect x="242.89592760180994" y="50" width="113.12217194570135" height="38" fill="#e6b299" stroke="white"><title>J8 O1: 108-183</title></rect><text font-family="sans-serif" font-size="11" x="245.89592760180994" y="74">J8</text><rect x="448.0241327300151" y="110" width="114.63046757164403" height="38" fill="#e6dc99" stroke="white"><title>J3 O1: 244-320</title></rect><text font-family="sans-serif" font-size="11" x="451.0241327300151" y="134">J3</text><rect x="448.0241327300151" y="170" width="27.149321266968325" height="38" fill="#99e6c9" stroke="white"><title>J9 O1: 244-262</title></rect><rect x="562.6546003016591" y="110" width="55.80693815987934" height="38" fill="#99e6c9" stroke="white"><title>J9 O2: 320-357</title></rect><text font-family="sans-serif" font-size="11" x="565.6546003016591" y="134">J9</text><rect x="589.8039215686274" y="170" width="147.8129713423831" height="38" fill="#9c99e6" stroke="white"><title>J7 O2: 338-436</title></rect><text font-family="sans-serif" font-size="11" x="592.8039215686274" y="194">J7</text><rect x="241.38763197586727" y="230" width="72.39819004524887" height="38" fill="#99d9e6" stroke="white"><title>J4 O2: 107-155</title></rect><text font-family="sans-serif" font-size="11" x="244.38763197586727" y="254">J4</text><rect x="475.1734539969834" y="170" width="75.41478129713424" height="38" fill="#e6b299" stroke="white"><title>J8 O2: 262-312</title></rect><text font-family="sans-serif" font-size="11" x="478.1734539969834" y="194">J8</text><rect x="618.4615384615385" y="110" width="61.840120663650076" height="38" fill="#e6b299" stroke="white"><title>J8 O3: 357-398</title></rect><text font-family="sans-serif" font-size="11" x="621.4615384615385" y="134">J8</text><rect x="626.0030165912518" y="230" width="119.1553544494721" height="38" fill="#99e6c9" stroke="white"><title>J9 O3: 362-441</title></rect><text font-family="sans-serif" font-size="11" x="629.0030165912518" y="254">J9</text><rect x="745.158371040724" y="230" width="82.95625942684767" height="38" fill="#e6b299" stroke="white"><title>J8 O4: 441-496</title></rect><text font-family="sans-serif" font-size="11" x="748.158371040724" y="254">J8</text><rect x="550.5882352941176" y="170" width="25.641025641025642" height="38" fill="#99d9e6" stroke="white"><title>J4 O3: 312-329</title></rect><rect x="737.6168929110105" y="290" width="72.39819004524887" height="38" fill="#e699c2" stroke="white"><title>J5 O2: 436-484</title></rect><text font-family="sans-serif" font-size="11" x="740.6168929110105" y="314">J5</text><rect x="680.3016591251885" y="110" width="69.3815987933635" height="38" fill="#99d9e6" stroke="white"><title>J4 O4: 398-444</title></rect><text font-family="sans-serif" font-size="11" x="683.3016591251885" y="134">J4</text><rect x="828.1146304675716" y="230" width="40.723981900452486" height="38" fill="#e699c2" stroke="white"><title>J5 O3: 496-523</title></rect><text font-family="sans-serif" font-size="11" x="831.1146304675716" y="254">J5</text><rect x="313.78582202111613" y="230" width="122.17194570135746" height="38" fill="#99e6af" stroke="white"><title>J1 O4: 155-236</title></rect><text font-family="sans-serif" font-size="11" x="316.78582202111613" y="254">J1</text><rect x="562.6546003016591" y="290" width="146.3046757164404" height="38" fill="#e6dc99" stroke="white"><title>J3 O2: 320-417</title></rect><text font-family="sans-serif" font-size="11" x="565.6546003016591" y="314">J3</text><rect x="868.8386123680241" y="230" width="75.41478129713424" height="38" fill="#9c99e6" stroke="white"><title>J7 O3: 523-573</title></rect><text font-family="sans-serif" font-size="11" x="871.8386123680241" y="254">J7</text><rect x="737.6168929110105" y="50" width="120.66365007541478" height="38" fill="#ace699" stroke="white"><title>J6 O3: 436-516</title></rect><text font-family="sans-serif" font-size="11" x="740.6168929110105" y="74">J6</text><rect x="858.2805429864253" y="50" width="67.87330316742081" height="38" fill="#e6dc99" stroke="white"><title>J3 O3: 516-561</title></rect><text font-family="sans-serif" font-size="11" x="861.2805429864253" y="74">J3</text><rect x="749.683257918552" y="110" width="46.757164404223225" height="38" fill="#e69999" stroke="white"><title>J0 O2: 444-475</title></rect><text font-family="sans-serif" font-size="11" x="752.683257918552" y="134">J0</text><rect x="944.2533936651583" y="290" width="120.66365007541478" height="38" fill="#9c99e6" stroke="white"><title>J7 O4: 573-653</title></rect><text font-family="sans-serif" font-size="11" x="947.2533936651583" y="314">J7</text><rect x="810.0150829562594" y="290" width="114.63046757164403" height="38" fill="#e69999" stroke="white"><title>J0 O3: 484-560</title></rect><text font-family="sans-serif" font-size="11" x="813.0150829562594" y="314">J0</text><rect x="858.2805429864253" y="170" width="75.41478129713424" height="38" fill="#ace699" stroke="white"><title>J6 O4: 516-566</title></rect><text font-family="sans-serif" font-size="11" x="861.2805429864253" y="194">J6</text><rect x="933.6953242835596" y="170" width="25.641025641025642" height="38" fill="#e69999" stroke="white"><title>J0 O4: 566-583</title></rect><rect x="959.3363499245852" y="170" width="93.51432880844645" height="38" fill="#e699c2" stroke="white"><title>J5 O4: 583-645</title></rect><text font-family="sans-serif" font-size="11" x="962.3363499245852" y="194">J5</text><rect x="926.1538461538462" y="50" width="92.00603318250377" height="38" fill="#99e6c9" stroke="white"><title>J9 O4: 561-622</title></rect><text font-family="sans-serif" font-size="11" x="929.1538461538462" y="74">J9</text><rect x="944.2533936651583" y="230" width="135.74660633484163" height="38" fill="#e6dc99" stroke="white"><title>J3 O4: 573-663</title></rect><text font-family="sans-serif" font-size="11" x="947.2533936651583" y="254">J3</text><text font-family="sans-serif" font-size="14" x="80.0" y="370">0</text><text font-family="sans-serif" font-size="14" x="180.0" y="370">66</text><text font-family="sans-serif" font-size="14" x="280.0" y="370">133</text><text font-family="sans-serif" font-size="14" x="380.0" y="370">199</text><text font-family="sans-serif" font-size="14" x="480.0" y="370">265</text><text font-family="sans-serif" font-size="14" x="580.0" y="370">332</text><text font-family="sans-serif" font-size="14" x="680.0" y="370">398</text><text font-family="sans-serif" font-size="14" x="780.0" y="370">464</text><text font-family="sans-serif" font-size="14" x="880.0" y="370">530</text><text font-family="sans-serif" font-size="14" x="980.0" y="370">597</text><text font-family="sans-serif" font-size="14" x="1080.0" y="370">663</text></svg>