<?xml version='1.0' encoding='utf-8'?>
<svg xmlns="http://www.w3.org/2000/svg" width="1160" height="400"><rect width="100%" height="100%" fill="white" /><text font-family="sans-serif" font-size="20" x="80" y="25">Job shop schedule | Makespan: 666</text><text font-family="sans-serif" font-size="14" x="15" y="76">M0</text><line x1="80" x2="1080" y1="90" y2="90" stroke="#dddddd" /><text font-family="sans-serif" font-size="14" x="15" y="136">M1</text><line x1="80" x2="1080" y1="150" y2="150" stroke="#dddddd" /><text font-family="sans-serif" font-size="14" x="15" y="196">M2</text><line x1="80" x2="1080" y1="210" y2="210" stroke="#dddddd" /><text font-family="sans-serif" font-size="14" x="15" y="256">M3</text><line x1="80" x2="1080" y1="270" y2="270" stroke="#dddddd" /><text font-family="sans-serif" font-size="14" x="15" y="316">M4</text><line x1="80" x2="1080" y1="330" y2="330" stroke="#dddddd" /><rect x="80.0" y="230" width="103.6036036036036" height="38" fill="#ace699" stroke="white"><title>J6 O0: 0-69</title></rect><text font-family="sans-serif" font-size="11" x="83.0" y="254">J6</text><rect x="183.6036036036036" y="230" width="58.55855855855855" height="38" fill="#c699e6" stroke="white"><title>J2 O0: 69-108</title></rect><text font-family="sans-serif" font-size="11" x="186.6036036036036" y="254">J2</text><rect x="80.0" y="110" width="81.08108108108108" height="38" fill="#e699c2" stroke="white"><title>J5 O0: 0-54</title></rect><text font-family="sans-serif" font-size="11" x="83.0" y="134">J5</text><rect x="80.0" y="290" width="115.61561561561561" height="38" fill="#99e6c9" stroke="white"><title>J9 O0: 0-77</title></rect><text font-family="sans-serif" font-size="11" x="83.0" y="314">J9</text><rect x="195.6156156156156" y="290" width="115.61561561561561" height="38" fill="#ace699" stroke="white"><title>J6 O1: 77-154</title></rect><text font-family="sans-serif" font-size="11" x="198.6156156156156" y="314">J6</text><rect x="311.2312312312312" y="110" width="130.63063063063063" height="38" fill="#ace699" stroke="white"><title>J6 O2: 154-241</title></rect><text font-family="sans-serif" font-size="11" x="314.2312312312312" y="134">J6</text><rect x="80.0" y="170" width="57.05705705705705" height="38" fill="#9c99e6" stroke="white"><title>J7 O0: 0-38</title></rect><text font-family="sans-serif" font-size="11" x="83.0" y="194">J7</text><rect x="80.0" y="50" width="124.62462462462462" height="38" fill="#99d9e6" stroke="white"><title>J4 O0: 0-83</title></rect><text font-family="sans-serif" font-size="11" x="83.0" y="74">J4</text><rect x="204.62462462462463" y="50" width="31.53153153153153" height="38" fill="#99e6af" stroke="white"><title>J1 O0: 83-104</title></rect><rect x="242.16216216216216" y="230" width="51.05105105105105" height="38" fill="#99d9e6" stroke="white"><title>J4 O1: 108-142</title></rect><text font-family="sans-serif" font-size="11" x="245.16216216216216" y="254">J4</text><rect x="161.0810810810811" y="170" width="64.56456456456456" height="38" fill="#e699c2" stroke="white"><title>J5 O1: 54-97</title></rect><text font-family="sans-serif" font-size="11" x="164.0810810810811" y="194">J5</text><rect x="293.2132132132132" y="230" width="78.07807807807808" height="38" fill="#99e6af" stroke="white"><title>J1 O1: 142-194</title></rect><text font-family="sans-serif" font-size="11" x="296.2132132132132" y="254">J1</text><rect x="311.2312312312312" y="290" width="118.61861861861861" height="38" fill="#e699c2" stroke="white"><title>J5 O2: 154-233</title></rect><text font-family="sans-serif" font-size="11" x="314.2312312312312" y="314">J5</text><rect x="161.0810810810811" y="110" width="115.61561561561561" height="38" fill="#e6dc99" stroke="white"><title>J3 O0: 54-131</title></rect><text font-family="sans-serif" font-size="11" x="164.0810810810811" y="134">J3</text><rect x="236.15615615615616" y="50" width="90.09009009009009" height="38" fill="#9c99e6" stroke="white"><title>J7 O1: 104-164</title></rect><text font-family="sans-serif" font-size="11" x="239.15615615615616" y="74">J7</text><rect x="326.24624624624624" y="50" width="82.58258258258257" height="38" fill="#e6dc99" stroke="white"><title>J3 O1: 164-219</title></rect><text font-family="sans-serif" font-size="11" x="329.24624624624624" y="74">J3</text><rect x="276.6966966966967" y="110" width="31.53153153153153" height="38" fill="#e69999" stroke="white"><title>J0 O0: 131-152</title></rect><rect x="371.29129129129126" y="230" width="25.525525525525524" height="38" fill="#e6b299" stroke="white"><title>J8 O0: 194-211</title></rect><rect x="441.8618618618618" y="170" width="130.63063063063063" height="38" fill="#ace699" stroke="white"><title>J6 O3: 241-328</title></rect><text font-family="sans-serif" font-size="11" x="444.8618618618618" y="194">J6</text><rect x="429.8498498498498" y="50" width="138.13813813813812" height="38" fill="#e699c2" stroke="white"><title>J5 O3: 233-325</title></rect><text font-family="sans-serif" font-size="11" x="432.8498498498498" y="74">J5</text><rect x="441.8618618618618" y="110" width="73.57357357357357" height="38" fill="#e6b299" stroke="white"><title>J8 O1: 241-290</title></rect><text font-family="sans-serif" font-size="11" x="444.8618618618618" y="134">J8</text><rect x="396.8168168168168" y="230" width="118.61861861861861" height="38" fill="#99e6c9" stroke="white"><title>J9 O1: 211-290</title></rect><text font-family="sans-serif" font-size="11" x="399.8168168168168" y="254">J9</text><rect x="429.8498498498498" y="290" width="118.61861861861861" height="38" fill="#e6dc99" stroke="white"><title>J3 O2: 233-312</title></rect><text font-family="sans-serif" font-size="11" x="432.8498498498498" y="314">J3</text><rect x="548.4684684684685" y="290" width="24.024024024024023" height="38" fill="#99e6af" stroke="white"><title>J1 O2: 312-328</title></rect><rect x="515.4354354354355" y="110" width="61.56156156156156" height="38" fill="#9c99e6" stroke="white"><title>J7 O2: 290-331</title></rect><text font-family="sans-serif" font-size="11" x="518.4354354354355" y="134">J7</text><rect x="572.4924924924925" y="290" width="37.53753753753754" height="38" fill="#e6b299" stroke="white"><title>J8 O2: 328-353</title></rect><text font-family="sans-serif" font-size="11" x="575.4924924924925" y="314">J8</text><rect x="610.03003003003" y="290" width="147.14714714714714" height="38" fill="#c699e6" stroke="white"><title>J2 O1: 353-451</title></rect><text font-family="sans-serif" font-size="11" x="613.03003003003" y="314">J2</text><rect x="610.03003003003" y="50" width="66.06606606606606" height="38" fill="#e6b299" stroke="white"><title>J8 O3: 353-397</title></rect><text font-family="sans-serif" font-size="11" x="613.03003003003" y="74">J8</text><rect x="572.4924924924925" y="170" width="99.09909909909909" height="38" fill="#e6dc99" stroke="white"><title>J3 O3: 328-394</title></rect><text font-family="sans-serif" font-size="11" x="575.4924924924925" y="194">J3</text><rect x="676.0960960960961" y="50" width="79.57957957957957" height="38" fill="#e69999" stroke="white"><title>J0 O1: 397-450</title></rect><text font-family="sans-serif" font-size="11" x="679.0960960960961" y="74">J0</text><rect x="293.2132132132132" y="170" width="96.09609609609609" height="38" fill="#99d9e6" stroke="white"><title>J4 O2: 142-206</title></rect><text font-family="sans-serif" font-size="11" x="296.2132132132132" y="194">J4</text><rect x="757.1771771771771" y="290" width="142.64264264264264" height="38" fill="#e69999" stroke="white"><title>J0 O2: 451-546</title></rect><text font-family="sans-serif" font-size="11" x="760.1771771771771" y="314">J0</text><rect x="757.1771771771771" y="110" width="63.06306306306306" height="38" fill="#c699e6" stroke="white"><title>J2 O2: 451-493</title></rect><text font-family="sans-serif" font-size="11" x="760.1771771771771" y="134">J2</text><rect x="671.5915915915915" y="170" width="64.56456456456456" height="38" fill="#99e6c9" stroke="white"><title>J9 O2: 394-437</title></rect><text font-family="sans-serif" font-size="11" x="674.5915915915915" y="194">J9</text><rect x="576.996996996997" y="110" width="28.528528528528525" height="38" fill="#99d9e6" stroke="white"><title>J4 O3: 331-350</title></rect><rect x="820.2402402402402" y="170" width="46.546546546546544" height="38" fill="#c699e6" stroke="white"><title>J2 O3: 493-524</title></rect><text font-family="sans-serif" font-size="11" x="823.2402402402402" y="194">J2</text><rect x="899.8198198198198" y="230" width="82.58258258258257" height="38" fill="#e69999" stroke="white"><title>J0 O3: 546-601</title></rect><text font-family="sans-serif" font-size="11" x="902.8198198198198" y="254">J0</text><rect x="736.1561561561562" y="170" width="39.03903903903904" height="38" fill="#99e6af" stroke="white"><title>J1 O3: 437-463</title></rect><text font-family="sans-serif" font-size="11" x="739.1561561561562" y="194">J1</text><rect x="576.996996996997" y="230" width="36.03603603603604" height="38" fill="#9c99e6" stroke="white"><title>J7 O3: 331-355</title></rect><text font-family="sans-serif" font-size="11" x="579.996996996997" y="254">J7</text><rect x="755.6756756756756" y="50" width="139.63963963963963" height="38" fill="#ace699" stroke="white"><title>J6 O4: 450-543</title></rect><text font-family="sans-serif" font-size="11" x="758.6756756756756" y="74">J6</text><rect x="820.2402402402402" y="110" width="112.61261261261261" height="38" fill="#99e6c9" stroke="white"><title>J9 O3: 493-568</title></rect><text font-family="sans-serif" font-size="11" x="823.2402402402402" y="134">J9</text><rect x="932.8528528528528" y="50" width="144.14414414414415" height="38" fill="#99e6c9" stroke="white"><title>J9 O4: 568-664</title></rect><text font-family="sans-serif" font-size="11" x="935.8528528528528" y="74">J9</text><rect x="932.8528528528528" y="110" width="106.6066066066066" height="38" fill="#99e6af" stroke="white"><title>J1 O4: 568-639</title></rect><text font-family="sans-serif" font-size="11" x="935.8528528528528" y="134">J1</text><rect x="895.3153153153153" y="50" width="18.01801801801802" height="38" fill="#c699e6" stroke="white"><title>J2 O4: 543-555</title></rect><rect x="671.5915915915915" y="230" width="115.61561561561561" height="38" fill="#e6dc99" stroke="white"><title>J3 O4: 394-471</title></rect><text font-family="sans-serif" font-size="11" x="674.5915915915915" y="254">J3</text><rect x="899.8198198198198" y="290" width="55.55555555555555" height="38" fill="#99d9e6" stroke="white"><title>J4 O4: 546-583</title></rect><text font-family="sans-serif" font-size="11" x="902.8198198198198" y="314">J4</text><rect x="787.2072072072071" y="230" width="93.09309309309309" height="38" fill="#e699c2" stroke="white"><title>J5 O4: 471-533</title></rect><text font-family="sans-serif" font-size="11" x="790.2072072072071" y="254">J5</text><rect x="955.3753753753754" y="290" width="124.62462462462462" height="38" fill="#9c99e6" stroke="white"><title>J7 O4: 583-666</title></rect><text font-family="sans-serif" font-size="11" x="958.3753753753754" y="314">J7</text><rect x="866.7867867867867" y="170" width="147.14714714714714" height="38" fill="#e6b299" stroke="white"><title>J8 O4: 524-622</title></rect><text font-family="sans-serif" font-size="11" x="869.7867867867867" y="194">J8</text><rect x="1013.9339339339339" y="170" width="51.05105105105105" height="38" fill="#e69999" stroke="white"><title>J0 O4: 622-656</title></rect><text font-family="sans-serif" font-size="11" x="1016.9339339339339" y="194">J0</text><text font-family="sans-serif" font-size="14" x="80.0" y="370">0</text><text font-family="sans-serif" font-size="14" x="180.0" y="370">67</text><text font-family="sans-serif" font-size="14" x="280.0" y="370">133</text><text font-family="sans-serif" font-size="14" x="380.0" y="370">200</text><text font-family="sans-serif" font-size="14" x="480.0" y="370">266</text><text font-family="sans-serif" font-size="14" x="580.0" y="370">333</text><text font-family="sans-serif" font-size="14" x="680.0" y="370">400</text><text font-family="sans-serif" font-size="14" x="780.0" y="370">466</text><text font-family="sans-serif" font-size="14" x="880.0" y="370">533</text><text font-family="sans-serif" font-size="14" x="980.0" y="370">599</text><text font-family="sans-serif" font-size="14" x="1080.0" y="370">666</text></svg>