<?xml version='1.0' encoding='utf-8'?>
<svg xmlns="http://www.w3.org/2000/svg" width="1160" height="700"><rect width="100%" height="100%" fill="white" /><text font-family="sans-serif" font-size="20" x="80" y="25">Job shop schedule | Makespan: 956</text><text font-family="sans-serif" font-size="14" x="15" y="76">M0</text><line x1="80" x2="1080" y1="90" y2="90" stroke="#dddddd" /><text font-family="sans-serif" font-size="14" x="15" y="136">M1</text><line x1="80" x2="1080" y1="150" y2="150" stroke="#dddddd" /><text font-family="sans-serif" font-size="14" x="15" y="196">M2</text><line x1="80" x2="1080" y1="210" y2="210" stroke="#dddddd" /><text font-family="sans-serif" font-size="14" x="15" y="256">M3</text><line x1="80" x2="1080" y1="270" y2="270" stroke="#dddddd" /><text font-family="sans-serif" font-size="14" x="15" y="316">M4</text><line x1="80" x2="1080" y1="330" y2="330" stroke="#dddddd" /><text font-family="sans-serif" font-size="14" x="15" y="376">M5</text><line x1="80" x2="1080" y1="390" y2="390" stroke="#dddddd" /><text font-family="sans-serif" font-size="14" x="15" y="436">M6</text><line x1="80" x2="1080" y1="450" y2="450" stroke="#dddddd" /><text font-family="sans-serif" font-size="14" x="15" y="496">M7</text><line x1="80" x2="1080" y1="510" y2="510" stroke="#dddddd" /><text font-family="sans-serif" font-size="14" x="15" y="556">M8</text><line x1="80" x2="1080" y1="570" y2="570" stroke="#dddddd" /><text font-family="sans-serif" font-size="14" x="15" y="616">M9</text><line x1="80" x2="1080" y1="630" y2="630" stroke="#dddddd" /><rect x="80.0" y="170" width="36.61087866108787" height="38" fill="#e699c2" stroke="white"><title>J5 O0: 0-35</title></rect><text font-family="sans-serif" font-size="11" x="83.0" y="194">J5</text><rect x="80.0" y="110" width="21.96652719665272" height="38" fill="#e69999" stroke="white"><title>J0 O0: 0-21</title></rect><rect x="80.0" y="230" width="16.736401673640167" height="38" fill="#ace699" stroke="white"><title>J6 O0: 0-16</title></rect><rect x="101.96652719665272" y="410" width="74.26778242677824" height="38" fill="#e69999" stroke="white"><title>J0 O1: 21-92</title></rect><text font-family="sans-serif" font-size="11" x="104.96652719665272" y="434">J0</text><rect x="96.73640167364016" y="230" width="35.56485355648535" height="38" fill="#c699e6" stroke="white"><title>J2 O0: 16-50</title></rect><text font-family="sans-serif" font-size="11" x="99.73640167364016" y="254">J2</text><rect x="116.61087866108787" y="170" width="61.71548117154811" height="38" fill="#ace699" stroke="white"><title>J6 O1: 35-94</title></rect><text font-family="sans-serif" font-size="11" x="119.61087866108787" y="194">J6</text><rect x="101.96652719665272" y="110" width="47.071129707112966" height="38" fill="#9c99e6" stroke="white"><title>J7 O0: 21-66</title></rect><text font-family="sans-serif" font-size="11" x="104.96652719665272" y="134">J7</text><rect x="80.0" y="530" width="72.17573221757321" height="38" fill="#99e6c9" stroke="white"><title>J9 O0: 0-69</title></rect><text font-family="sans-serif" font-size="11" x="83.0" y="554">J9</text><rect x="178.32635983263597" y="170" width="66.94560669456067" height="38" fill="#c699e6" stroke="white"><title>J2 O1: 94-158</title></rect><text font-family="sans-serif" font-size="11" x="181.32635983263597" y="194">J2</text><rect x="176.23430962343096" y="590" width="16.736401673640167" height="38" fill="#e69999" stroke="white"><title>J0 O2: 92-108</title></rect><rect x="192.97071129707112" y="590" width="84.72803347280335" height="38" fill="#99e6c9" stroke="white"><title>J9 O1: 108-189</title></rect><text font-family="sans-serif" font-size="11" x="195.97071129707112" y="614">J9</text><rect x="149.0376569037657" y="110" width="91.0041841004184" height="38" fill="#e6dc99" stroke="white"><title>J3 O0: 66-153</title></rect><text font-family="sans-serif" font-size="11" x="152.0376569037657" y="134">J3</text><rect x="80.0" y="290" width="57.53138075313807" height="38" fill="#99e6af" stroke="white"><title>J1 O0: 0-55</title></rect><text font-family="sans-serif" font-size="11" x="83.0" y="314">J1</text><rect x="245.27196652719664" y="170" width="32.42677824267782" height="38" fill="#99e6af" stroke="white"><title>J1 O1: 158-189</title></rect><text font-family="sans-serif" font-size="11" x="248.27196652719664" y="194">J1</text><rect x="178.32635983263597" y="50" width="48.11715481171548" height="38" fill="#ace699" stroke="white"><title>J6 O2: 94-140</title></rect><text font-family="sans-serif" font-size="11" x="181.32635983263597" y="74">J6</text><rect x="240.0418410041841" y="110" width="95.18828451882845" height="38" fill="#ace699" stroke="white"><title>J6 O3: 153-244</title></rect><text font-family="sans-serif" font-size="11" x="243.0418410041841" y="134">J6</text><rect x="226.44351464435147" y="50" width="91.0041841004184" height="38" fill="#9c99e6" stroke="white"><title>J7 O1: 140-227</title></rect><text font-family="sans-serif" font-size="11" x="229.44351464435147" y="74">J7</text><rect x="245.27196652719664" y="530" width="64.85355648535564" height="38" fill="#c699e6" stroke="white"><title>J2 O2: 158-220</title></rect><text font-family="sans-serif" font-size="11" x="248.27196652719664" y="554">J2</text><rect x="335.23012552301253" y="590" width="44.97907949790795" height="38" fill="#ace699" stroke="white"><title>J6 O4: 244-287</title></rect><text font-family="sans-serif" font-size="11" x="338.23012552301253" y="614">J6</text><rect x="277.69874476987445" y="170" width="102.51046025104603" height="38" fill="#99d9e6" stroke="white"><title>J4 O0: 189-287</title></rect><text font-family="sans-serif" font-size="11" x="280.69874476987445" y="194">J4</text><rect x="240.0418410041841" y="230" width="72.17573221757321" height="38" fill="#e6dc99" stroke="white"><title>J3 O1: 153-222</title></rect><text font-family="sans-serif" font-size="11" x="243.0418410041841" y="254">J3</text><rect x="380.2092050209205" y="50" width="46.02510460251046" height="38" fill="#99d9e6" stroke="white"><title>J4 O1: 287-331</title></rect><text font-family="sans-serif" font-size="11" x="383.2092050209205" y="74">J4</text><rect x="317.44769874476987" y="230" width="42.88702928870293" height="38" fill="#9c99e6" stroke="white"><title>J7 O2: 227-268</title></rect><text font-family="sans-serif" font-size="11" x="320.44769874476987" y="254">J7</text><rect x="380.2092050209205" y="170" width="98.32635983263597" height="38" fill="#99e6c9" stroke="white"><title>J9 O2: 287-381</title></rect><text font-family="sans-serif" font-size="11" x="383.2092050209205" y="194">J9</text><rect x="132.30125523012552" y="230" width="79.49790794979079" height="38" fill="#e699c2" stroke="white"><title>J5 O1: 50-126</title></rect><text font-family="sans-serif" font-size="11" x="135.30125523012552" y="254">J5</text><rect x="211.79916317991632" y="350" width="29.288702928870293" height="38" fill="#e699c2" stroke="white"><title>J5 O2: 126-154</title></rect><rect x="310.1255230125523" y="530" width="54.39330543933054" height="38" fill="#e69999" stroke="white"><title>J0 O3: 220-272</title></rect><text font-family="sans-serif" font-size="11" x="313.1255230125523" y="554">J0</text><rect x="478.5355648535565" y="170" width="91.0041841004184" height="38" fill="#e6dc99" stroke="white"><title>J3 O2: 381-468</title></rect><text font-family="sans-serif" font-size="11" x="481.5355648535565" y="194">J3</text><rect x="364.5188284518828" y="470" width="27.19665271966527" height="38" fill="#e69999" stroke="white"><title>J0 O4: 272-298</title></rect><rect x="277.69874476987445" y="350" width="102.51046025104603" height="38" fill="#99e6af" stroke="white"><title>J1 O2: 189-287</title></rect><text font-family="sans-serif" font-size="11" x="280.69874476987445" y="374">J1</text><rect x="360.3347280334728" y="290" width="20.920502092050206" height="38" fill="#9c99e6" stroke="white"><title>J7 O3: 268-288</title></rect><rect x="137.53138075313808" y="290" width="34.51882845188285" height="38" fill="#e6b299" stroke="white"><title>J8 O0: 55-88</title></rect><text font-family="sans-serif" font-size="11" x="140.53138075313808" y="314">J8</text><rect x="381.255230125523" y="410" width="56.48535564853556" height="38" fill="#9c99e6" stroke="white"><title>J7 O4: 288-342</title></rect><text font-family="sans-serif" font-size="11" x="384.255230125523" y="434">J7</text><rect x="569.5397489539748" y="170" width="35.56485355648535" height="38" fill="#e69999" stroke="white"><title>J0 O5: 468-502</title></rect><text font-family="sans-serif" font-size="11" x="572.5397489539748" y="194">J0</text><rect x="569.5397489539748" y="470" width="39.74895397489539" height="38" fill="#e6dc99" stroke="white"><title>J3 O3: 468-506</title></rect><text font-family="sans-serif" font-size="11" x="572.5397489539748" y="494">J3</text><rect x="609.2887029288703" y="530" width="25.10460251046025" height="38" fill="#e6dc99" stroke="white"><title>J3 O4: 506-530</title></rect><rect x="605.1046025104603" y="170" width="38.70292887029289" height="38" fill="#e6b299" stroke="white"><title>J8 O1: 502-539</title></rect><text font-family="sans-serif" font-size="11" x="608.1046025104603" y="194">J8</text><rect x="478.5355648535565" y="290" width="100.418410041841" height="38" fill="#99e6c9" stroke="white"><title>J9 O3: 381-477</title></rect><text font-family="sans-serif" font-size="11" x="481.5355648535565" y="314">J9</text><rect x="277.69874476987445" y="590" width="10.460251046025103" height="38" fill="#e699c2" stroke="white"><title>J5 O3: 189-199</title></rect><rect x="578.9539748953976" y="230" width="28.24267782426778" height="38" fill="#99e6c9" stroke="white"><title>J9 O4: 477-504</title></rect><rect x="335.23012552301253" y="110" width="19.874476987447697" height="38" fill="#c699e6" stroke="white"><title>J2 O3: 244-263</title></rect><rect x="380.2092050209205" y="590" width="82.63598326359832" height="38" fill="#99e6af" stroke="white"><title>J1 O3: 287-366</title></rect><text font-family="sans-serif" font-size="11" x="383.2092050209205" y="614">J1</text><rect x="380.2092050209205" y="530" width="52.30125523012552" height="38" fill="#ace699" stroke="white"><title>J6 O5: 287-337</title></rect><text font-family="sans-serif" font-size="11" x="383.2092050209205" y="554">J6</text><rect x="381.255230125523" y="290" width="96.23430962343096" height="38" fill="#c699e6" stroke="white"><title>J2 O4: 288-380</title></rect><text font-family="sans-serif" font-size="11" x="384.255230125523" y="314">J2</text><rect x="643.8075313807531" y="530" width="69.0376569037657" height="38" fill="#e6b299" stroke="white"><title>J8 O2: 539-605</title></rect><text font-family="sans-serif" font-size="11" x="646.8075313807531" y="554">J8</text><rect x="288.1589958158996" y="290" width="63.80753138075313" height="38" fill="#e699c2" stroke="white"><title>J5 O4: 199-260</title></rect><text font-family="sans-serif" font-size="11" x="291.1589958158996" y="314">J5</text><rect x="605.1046025104603" y="50" width="55.43933054393305" height="38" fill="#e69999" stroke="white"><title>J0 O6: 502-555</title></rect><text font-family="sans-serif" font-size="11" x="608.1046025104603" y="74">J0</text><rect x="660.5439330543933" y="50" width="72.17573221757321" height="38" fill="#99e6c9" stroke="white"><title>J9 O5: 555-624</title></rect><text font-family="sans-serif" font-size="11" x="663.5439330543933" y="74">J9</text><rect x="437.74058577405856" y="410" width="54.39330543933054" height="38" fill="#ace699" stroke="white"><title>J6 O6: 342-394</title></rect><text font-family="sans-serif" font-size="11" x="440.74058577405856" y="434">J6</text><rect x="660.5439330543933" y="290" width="21.96652719665272" height="38" fill="#e69999" stroke="white"><title>J0 O7: 555-576</title></rect><rect x="634.3933054393306" y="590" width="86.82008368200836" height="38" fill="#e6dc99" stroke="white"><title>J3 O5: 530-613</title></rect><text font-family="sans-serif" font-size="11" x="637.3933054393306" y="614">J3</text><rect x="732.7196652719665" y="470" width="47.071129707112966" height="38" fill="#99e6c9" stroke="white"><title>J9 O6: 624-669</title></rect><text font-family="sans-serif" font-size="11" x="735.7196652719665" y="494">J9</text><rect x="351.9665271966527" y="410" width="9.414225941422593" height="38" fill="#e699c2" stroke="white"><title>J5 O5: 260-269</title></rect><rect x="721.2133891213389" y="410" width="42.88702928870293" height="38" fill="#e6dc99" stroke="white"><title>J3 O6: 613-654</title></rect><text font-family="sans-serif" font-size="11" x="724.2133891213389" y="434">J3</text><rect x="462.8451882845188" y="50" width="12.552301255230125" height="38" fill="#99e6af" stroke="white"><title>J1 O4: 366-378</title></rect><rect x="426.23430962343093" y="350" width="26.15062761506276" height="38" fill="#99d9e6" stroke="white"><title>J4 O2: 331-356</title></rect><rect x="477.489539748954" y="590" width="82.63598326359832" height="38" fill="#c699e6" stroke="white"><title>J2 O5: 380-459</title></rect><text font-family="sans-serif" font-size="11" x="480.489539748954" y="614">J2</text><rect x="560.1255230125523" y="590" width="44.97907949790795" height="38" fill="#9c99e6" stroke="white"><title>J7 O5: 459-502</title></rect><text font-family="sans-serif" font-size="11" x="563.1255230125523" y="614">J7</text><rect x="712.8451882845188" y="350" width="34.51882845188285" height="38" fill="#e6b299" stroke="white"><title>J8 O3: 605-638</title></rect><text font-family="sans-serif" font-size="11" x="715.8451882845188" y="374">J8</text><rect x="682.510460251046" y="230" width="57.53138075313807" height="38" fill="#e69999" stroke="white"><title>J0 O8: 576-631</title></rect><text font-family="sans-serif" font-size="11" x="685.510460251046" y="254">J0</text><rect x="492.1338912133891" y="410" width="78.45188284518828" height="38" fill="#99d9e6" stroke="white"><title>J4 O3: 394-469</title></rect><text font-family="sans-serif" font-size="11" x="495.1338912133891" y="434">J4</text><rect x="475.39748953974896" y="50" width="99.3723849372385" height="38" fill="#e699c2" stroke="white"><title>J5 O6: 378-473</title></rect><text font-family="sans-serif" font-size="11" x="478.39748953974896" y="74">J5</text><rect x="492.1338912133891" y="350" width="61.71548117154811" height="38" fill="#ace699" stroke="white"><title>J6 O7: 394-453</title></rect><text font-family="sans-serif" font-size="11" x="495.1338912133891" y="374">J6</text><rect x="475.39748953974896" y="470" width="69.0376569037657" height="38" fill="#99e6af" stroke="white"><title>J1 O5: 378-444</title></rect><text font-family="sans-serif" font-size="11" x="478.39748953974896" y="494">J1</text><rect x="609.2887029288703" y="470" width="44.97907949790795" height="38" fill="#c699e6" stroke="white"><title>J2 O6: 506-549</title></rect><text font-family="sans-serif" font-size="11" x="612.2887029288703" y="494">J2</text><rect x="712.8451882845188" y="530" width="14.644351464435147" height="38" fill="#9c99e6" stroke="white"><title>J7 O6: 605-619</title></rect><rect x="747.3640167364016" y="350" width="9.414225941422593" height="38" fill="#9c99e6" stroke="white"><title>J7 O7: 638-647</title></rect><rect x="654.2677824267782" y="470" width="44.97907949790795" height="38" fill="#99d9e6" stroke="white"><title>J4 O4: 549-592</title></rect><text font-family="sans-serif" font-size="11" x="657.2677824267782" y="494">J4</text><rect x="727.4895397489539" y="530" width="36.61087866108787" height="38" fill="#e699c2" stroke="white"><title>J5 O7: 619-654</title></rect><text font-family="sans-serif" font-size="11" x="730.4895397489539" y="554">J5</text><rect x="654.2677824267782" y="410" width="56.48535564853556" height="38" fill="#c699e6" stroke="white"><title>J2 O7: 549-603</title></rect><text font-family="sans-serif" font-size="11" x="657.2677824267782" y="434">J2</text><rect x="747.3640167364016" y="230" width="27.19665271966527" height="38" fill="#e6b299" stroke="white"><title>J8 O4: 638-664</title></rect><rect x="699.2468619246862" y="110" width="51.25523012552301" height="38" fill="#99d9e6" stroke="white"><title>J4 O5: 592-641</title></rect><text font-family="sans-serif" font-size="11" x="702.2468619246862" y="134">J4</text><rect x="756.7782426778242" y="350" width="99.3723849372385" height="38" fill="#e69999" stroke="white"><title>J0 O9: 647-742</title></rect><text font-family="sans-serif" font-size="11" x="759.7782426778242" y="374">J0</text><rect x="764.1004184100418" y="50" width="97.28033472803347" height="38" fill="#e6dc99" stroke="white"><title>J3 O7: 654-747</title></rect><text font-family="sans-serif" font-size="11" x="767.1004184100418" y="74">J3</text><rect x="779.7907949790795" y="410" width="81.58995815899581" height="38" fill="#99e6c9" stroke="white"><title>J9 O7: 669-747</title></rect><text font-family="sans-serif" font-size="11" x="782.7907949790795" y="434">J9</text><rect x="750.5020920502092" y="290" width="100.418410041841" height="38" fill="#99d9e6" stroke="white"><title>J4 O6: 641-737</title></rect><text font-family="sans-serif" font-size="11" x="753.5020920502092" y="314">J4</text><rect x="544.4351464435147" y="110" width="43.93305439330544" height="38" fill="#99e6af" stroke="white"><title>J1 O6: 444-486</title></rect><text font-family="sans-serif" font-size="11" x="547.4351464435147" y="134">J1</text><rect x="779.7907949790795" y="470" width="8.368200836820083" height="38" fill="#e6b299" stroke="white"><title>J8 O5: 669-677</title></rect><rect x="788.1589958158995" y="110" width="29.288702928870293" height="38" fill="#e6b299" stroke="white"><title>J8 O6: 677-705</title></rect><rect x="756.7782426778242" y="170" width="40.79497907949791" height="38" fill="#9c99e6" stroke="white"><title>J7 O8: 647-686</title></rect><text font-family="sans-serif" font-size="11" x="759.7782426778242" y="194">J7</text><rect x="850.9205020920501" y="590" width="80.5439330543933" height="38" fill="#99d9e6" stroke="white"><title>J4 O7: 737-814</title></rect><text font-family="sans-serif" font-size="11" x="853.9205020920501" y="614">J4</text><rect x="764.1004184100418" y="110" width="7.322175732217573" height="38" fill="#e699c2" stroke="white"><title>J5 O8: 654-661</title></rect><rect x="931.4644351464435" y="230" width="17.782426778242677" height="38" fill="#99d9e6" stroke="white"><title>J4 O8: 814-831</title></rect><rect x="861.3807531380753" y="410" width="93.09623430962343" height="38" fill="#e6b299" stroke="white"><title>J8 O7: 747-836</title></rect><text font-family="sans-serif" font-size="11" x="864.3807531380753" y="434">J8</text><rect x="578.9539748953976" y="290" width="29.288702928870293" height="38" fill="#ace699" stroke="white"><title>J6 O8: 477-505</title></rect><rect x="861.3807531380753" y="350" width="80.5439330543933" height="38" fill="#e6dc99" stroke="white"><title>J3 O8: 747-824</title></rect><text font-family="sans-serif" font-size="11" x="864.3807531380753" y="374">J3</text><rect x="861.3807531380753" y="110" width="77.40585774058577" height="38" fill="#99e6c9" stroke="white"><title>J9 O8: 747-821</title></rect><text font-family="sans-serif" font-size="11" x="864.3807531380753" y="134">J9</text><rect x="861.3807531380753" y="50" width="86.82008368200836" height="38" fill="#c699e6" stroke="white"><title>J2 O8: 747-830</title></rect><text font-family="sans-serif" font-size="11" x="864.3807531380753" y="74">J2</text><rect x="797.5732217573221" y="470" width="74.26778242677824" height="38" fill="#9c99e6" stroke="white"><title>J7 O9: 686-757</title></rect><text font-family="sans-serif" font-size="11" x="800.5732217573221" y="494">J7</text><rect x="941.9246861924686" y="290" width="62.76150627615063" height="38" fill="#e6dc99" stroke="white"><title>J3 O9: 824-884</title></rect><text font-family="sans-serif" font-size="11" x="944.9246861924686" y="314">J3</text><rect x="941.9246861924686" y="350" width="87.86610878661088" height="38" fill="#99e6c9" stroke="white"><title>J9 O9: 824-908</title></rect><text font-family="sans-serif" font-size="11" x="944.9246861924686" y="374">J9</text><rect x="949.2468619246862" y="530" width="82.63598326359832" height="38" fill="#99d9e6" stroke="white"><title>J4 O9: 831-910</title></rect><text font-family="sans-serif" font-size="11" x="952.2468619246862" y="554">J4</text><rect x="954.4769874476987" y="590" width="43.93305439330544" height="38" fill="#e6b299" stroke="white"><title>J8 O8: 836-878</title></rect><text font-family="sans-serif" font-size="11" x="957.4769874476987" y="614">J8</text><rect x="871.8410041841004" y="470" width="99.3723849372385" height="38" fill="#e699c2" stroke="white"><title>J5 O9: 757-852</title></rect><text font-family="sans-serif" font-size="11" x="874.8410041841004" y="494">J5</text><rect x="764.1004184100418" y="530" width="80.5439330543933" height="38" fill="#99e6af" stroke="white"><title>J1 O7: 654-731</title></rect><text font-family="sans-serif" font-size="11" x="767.1004184100418" y="554">J1</text><rect x="998.4100418410042" y="50" width="81.58995815899581" height="38" fill="#e6b299" stroke="white"><title>J8 O9: 878-956</title></rect><text font-family="sans-serif" font-size="11" x="1001.4100418410042" y="74">J8</text><rect x="954.4769874476987" y="410" width="80.5439330543933" height="38" fill="#99e6af" stroke="white"><title>J1 O8: 836-913</title></rect><text font-family="sans-serif" font-size="11" x="957.4769874476987" y="434">J1</text><rect x="699.2468619246862" y="470" width="28.24267782426778" height="38" fill="#ace699" stroke="white"><title>J6 O9: 592-619</title></rect><rect x="1035.020920502092" y="230" width="40.79497907949791" height="38" fill="#99e6af" stroke="white"><title>J1 O9: 913-952</title></rect><text font-family="sans-serif" font-size="11" x="1038.020920502092" y="254">J1</text><rect x="1029.7907949790795" y="350" width="38.70292887029289" height="38" fill="#c699e6" stroke="white"><title>J2 O9: 908-945</title></rect><text font-family="sans-serif" font-size="11" x="1032.7907949790795" y="374">J2</text><text font-family="sans-serif" font-size="14" x="80.0" y="670">0</text><text font-family="sans-serif" font-size="14" x="180.0" y="670">96</text><text font-family="sans-serif" font-size="14" x="280.0" y="670">191</text><text font-family="sans-serif" font-size="14" x="380.0" y="670">287</text><text font-family="sans-serif" font-size="14" x="480.0" y="670">382</text><text font-family="sans-serif" font-size="14" x="580.0" y="670">478</text><text font-family="sans-serif" font-size="14" x="680.0" y="670">574</text><text font-family="sans-serif" font-size="14" x="780.0" y="670">669</text><text font-family="sans-serif" font-size="14" x="880.0" y="670">765</text><text font-family="sans-serif" font-size="14" x="980.0" y="670">860</text><text font-family="sans-serif" font-size="14" x="1080.0" y="670">956</text></svg>